# File created by Blade
# Date/Time:  Wed Jan 21 17:21:31 2015
# Frame Rate: 120.000 fps
#------------------------------------------------------
:FULLY-SPECIFIED
:DEGREES
1261
root 16.472885 30.761760 -12.388551 -160.499114 10.899108 -191.712182
Spine 33.842678 21.413364 -11.611133
Head -42.939109 -12.006103 5.736775
LeftShoulder 11.998803 -34.182278 4.828132
LeftArm 20.379066 65.924680 -51.432129
LeftForeArm 35.679094 -0.000000 70.356620
LeftHand -6.618100 0.000000 1.526216
LeftHandThumb1 -26.253704 0.000000 33.147579
RightShoulder 11.791561 6.731368 -3.659032
RightArm 42.501155 -10.895579 68.164845
RightForeArm -22.877492 -0.000000 27.610760
RightHand -7.983619 -0.000000 -13.847929
RightHandThumb1 -24.326973 -0.000000 -32.862282
LeftUpLeg -57.104881 -3.389126 -18.129612
LeftLeg 51.392850 -0.000000 -0.000000
LeftFoot -34.644214 36.609283 -12.317848
LeftToeBase 24.055658 -0.000000 -0.000000
RightUpLeg -27.289300 5.769682 -3.237962
RightLeg 89.763236 -0.000000 -0.000000
RightFoot 38.132086 -4.368204 23.008888
RightToeBase 52.681800 -0.000000 -0.000000
1262
root 16.473839 30.972739 -12.469482 -160.844434 11.003544 -191.410429
Spine 33.647318 21.121069 -11.325129
Head -42.804153 -11.512600 5.610953
LeftShoulder 11.956846 -34.016360 4.693756
LeftArm 21.027315 66.237940 -51.254564
LeftForeArm 35.408330 -0.000000 68.400813
LeftHand -6.267958 -0.000000 1.340871
LeftHandThumb1 -26.253704 0.000000 33.147579
RightShoulder 11.556067 6.291618 -3.367564
RightArm 42.642661 -11.739868 67.545381
RightForeArm -22.958093 -0.000000 27.472011
RightHand -7.755224 -0.000000 -13.509081
RightHandThumb1 -24.326973 -0.000000 -32.862282
LeftUpLeg -55.912531 -3.159654 -17.842362
LeftLeg 50.103602 -0.000000 -0.000000
LeftFoot -34.183990 36.701242 -12.254952
LeftToeBase 23.992487 -0.000000 -0.000000
RightUpLeg -27.900473 5.373326 -3.127208
RightLeg 91.126650 -0.000000 -0.000000
RightFoot 34.318965 -2.079339 23.172663
RightToeBase 50.613746 -0.000000 -0.000000
1263
root 16.471405 31.185418 -12.546411 -161.157727 11.171517 -191.120109
Spine 33.415692 20.870577 -11.061404
Head -42.658245 -10.985823 5.448882
LeftShoulder 11.844007 -33.803972 4.567663
LeftArm 22.165412 66.605261 -50.689649
LeftForeArm 35.194739 -0.000000 66.295803
LeftHand -6.163076 0.000000 1.444877
LeftHandThumb1 -26.253704 0.000000 33.147579
RightShoulder 11.308052 5.884102 -3.105417
RightArm 42.658257 -12.231524 67.390790
RightForeArm -23.517693 -0.000000 27.269140
RightHand -7.518814 -0.000000 -12.780116
RightHandThumb1 -24.326973 -0.000000 -32.862282
LeftUpLeg -54.750516 -2.825415 -17.631330
LeftLeg 48.775768 -0.000000 -0.000000
LeftFoot -33.683370 36.729543 -12.163465
LeftToeBase 23.955647 -0.000000 -0.000000
RightUpLeg -28.574271 5.063709 -3.055958
RightLeg 92.367709 -0.000000 -0.000000
RightFoot 30.297597 0.170652 22.978792
RightToeBase 48.534975 -0.000000 -0.000000
1264
root 16.473146 31.402483 -12.625382 -161.534972 11.379240 -190.790944
Spine 33.274765 20.658445 -10.753622
Head -42.539942 -10.444215 5.321373
LeftShoulder 11.882381 -33.770607 4.340400
LeftArm 22.685408 66.942853 -50.649487
LeftForeArm 34.890908 -0.000000 64.210095
LeftHand -5.726784 -0.000000 1.062496
LeftHandThumb1 -26.253704 0.000000 33.147579
RightShoulder 11.091946 5.618233 -2.730850
RightArm 42.558809 -13.024922 66.804293
RightForeArm -23.593282 -0.000000 27.163214
RightHand -7.380746 0.000000 -12.522354
RightHandThumb1 -24.326973 -0.000000 -32.862282
LeftUpLeg -53.484845 -2.448196 -17.370297
LeftLeg 47.373427 -0.000000 -0.000000
LeftFoot -33.142576 36.790241 -12.010208
LeftToeBase 23.905883 -0.000000 -0.000000
RightUpLeg -29.192925 4.803240 -2.971685
RightLeg 93.392408 -0.000000 -0.000000
RightFoot 26.342222 1.687359 22.734237
RightToeBase 46.728833 -0.000000 -0.000000
1265
root 16.470478 31.615895 -12.697398 -161.838297 11.548601 -190.396059
Spine 33.063650 20.335713 -10.363583
Head -42.400307 -9.849531 5.148716
LeftShoulder 11.763047 -33.611821 4.107028
LeftArm 23.757000 67.264447 -50.134540
LeftForeArm 34.558027 -0.000000 62.087305
LeftHand -5.210113 0.000000 0.684320
LeftHandThumb1 -26.253704 0.000000 33.147579
RightShoulder 10.862240 5.239940 -2.441988
RightArm 42.458686 -13.535337 66.527364
RightForeArm -23.973310 -0.000000 27.109484
RightHand -7.386258 0.000000 -12.339632
RightHandThumb1 -24.326973 -0.000000 -32.862282
LeftUpLeg -52.300320 -2.215208 -16.984376
LeftLeg 45.986459 -0.000000 -0.000000
LeftFoot -32.623402 36.963675 -11.937916
LeftToeBase 23.889699 -0.000000 -0.000000
RightUpLeg -29.879051 4.418447 -2.884059
RightLeg 94.288763 -0.000000 -0.000000
RightFoot 22.470649 3.008502 21.598102
RightToeBase 44.895666 -0.000000 -0.000000
1266
root 16.471733 31.830730 -12.774617 -162.191634 11.763871 -190.006664
Spine 32.902195 20.043333 -10.007929
Head -42.267432 -9.164021 4.926657
LeftShoulder 11.658641 -33.608681 3.883386
LeftArm 24.530340 67.696925 -49.956089
LeftForeArm 34.543649 -0.000000 59.922332
LeftHand -4.927278 -0.000000 0.307299
LeftHandThumb1 -26.253704 0.000000 33.147579
RightShoulder 10.703087 5.078504 -2.069013
RightArm 42.013628 -14.088573 66.289393
RightForeArm -24.129494 -0.000000 27.207616
RightHand -7.359901 -0.000000 -12.251430
RightHandThumb1 -24.326973 -0.000000 -32.862282
LeftUpLeg -51.029128 -1.967007 -16.588175
LeftLeg 44.539433 -0.000000 -0.000000
LeftFoot -32.088210 37.162369 -11.855200
LeftToeBase 23.822342 -0.000000 -0.000000
RightUpLeg -30.538587 4.121455 -2.806480
RightLeg 95.032372 -0.000000 -0.000000
RightFoot 18.642510 3.869654 20.381376
RightToeBase 43.125952 -0.000000 -0.000000
1267
root 16.472744 32.043442 -12.846137 -162.493685 12.056200 -189.582562
Spine 32.664952 19.797852 -9.655371
Head -42.110947 -8.540499 4.775075
LeftShoulder 11.519396 -33.454736 3.660030
LeftArm 25.890133 68.071461 -49.236431
LeftForeArm 34.495261 -0.000000 57.664811
LeftHand -4.362764 -0.000000 -0.132013
LeftHandThumb1 -26.253704 0.000000 33.147579
RightShoulder 10.511993 4.805178 -1.729640
RightArm 41.687599 -14.453874 66.210849
RightForeArm -24.355735 -0.000000 27.143558
RightHand -7.226137 0.000000 -12.004387
RightHandThumb1 -24.326973 -0.000000 -32.862282
LeftUpLeg -49.831730 -1.597168 -16.212192
LeftLeg 43.109329 -0.000000 -0.000000
LeftFoot -31.543937 37.286975 -11.762491
LeftToeBase 23.808433 -0.000000 -0.000000
RightUpLeg -31.333622 3.869368 -2.690352
RightLeg 95.627066 -0.000000 -0.000000
RightFoot 15.153008 3.562316 18.830411
RightToeBase 41.328150 -0.000000 -0.000000
1268
root 16.476362 32.253001 -12.918057 -162.789556 12.333098 -189.105592
Spine 32.435368 19.515428 -9.233987
Head -41.953690 -7.875398 4.597998
LeftShoulder 11.380529 -33.335176 3.411152
LeftArm 27.085265 68.458168 -48.681570
LeftForeArm 34.581701 -0.000000 55.452197
LeftHand -3.863619 -0.000000 -0.423914
LeftHandThumb1 -26.253704 0.000000 33.147579
RightShoulder 10.350573 4.650250 -1.398656
RightArm 41.146613 -14.814112 66.201392
RightForeArm -24.485410 -0.000000 27.168905
RightHand -7.175280 -0.000000 -11.923991
RightHandThumb1 -24.326973 -0.000000 -32.862282
LeftUpLeg -48.651126 -1.210957 -15.791569
LeftLeg 41.720012 -0.000000 -0.000000
LeftFoot -31.020771 37.361648 -11.749030
LeftToeBase 23.755790 -0.000000 -0.000000
RightUpLeg -32.135551 3.624987 -2.534877
RightLeg 96.053346 -0.000000 -0.000000
RightFoot 11.911769 2.536766 17.480835
RightToeBase 39.388721 -0.000000 -0.000000
1269
root 16.481365 32.465353 -12.992830 -163.121556 12.704701 -188.644457
Spine 32.243864 19.315451 -8.841401
Head -41.776510 -7.211599 4.439637
LeftShoulder 11.260757 -33.252033 3.120965
LeftArm 28.322816 68.782868 -48.154172
LeftForeArm 34.705582 -0.000000 53.076313
LeftHand -3.344306 0.000000 -1.042475
LeftHandThumb1 -26.253704 0.000000 33.147579
RightShoulder 10.173901 4.423510 -1.067406
RightArm 40.683727 -14.911132 66.393686
RightForeArm -24.720608 -0.000000 26.994993
RightHand -6.902608 -0.000000 -11.530573
RightHandThumb1 -24.326973 -0.000000 -32.862282
LeftUpLeg -47.383417 -0.785969 -15.374304
LeftLeg 40.226226 -0.000000 -0.000000
LeftFoot -30.400155 37.530114 -11.568974
LeftToeBase 23.688783 -0.000000 -0.000000
RightUpLeg -32.923173 3.418259 -2.381171
RightLeg 96.256843 -0.000000 -0.000000
RightFoot 8.819495 0.781258 16.275565
RightToeBase 38.554289 -0.000000 -0.000000
1270
root 16.490166 32.674132 -13.063576 -163.429133 13.135794 -188.178103
Spine 31.982391 19.138780 -8.531123
Head -41.491050 -6.422792 4.248304
LeftShoulder 11.206982 -33.272938 2.873397
LeftArm 29.314536 69.318823 -47.809754
LeftForeArm 34.645686 0.000000 50.703396
LeftHand -2.772478 -0.000000 -1.302901
LeftHandThumb1 -26.253704 0.000000 33.147579
RightShoulder 10.096268 4.211283 -0.702898
RightArm 40.115761 -15.140018 66.369456
RightForeArm -24.644869 -0.000000 26.943628
RightHand -6.845708 -0.000000 -11.953962
RightHandThumb1 -24.326973 -0.000000 -32.862282
LeftUpLeg -46.151837 -0.314458 -14.966132
LeftLeg 38.740662 -0.000000 -0.000000
LeftFoot -29.837105 37.682677 -11.521411
LeftToeBase 23.610788 -0.000000 -0.000000
RightUpLeg -33.778912 3.254848 -2.260760
RightLeg 96.345674 -0.000000 -0.000000
RightFoot 6.128980 -1.512081 15.836665
RightToeBase 37.088863 -0.000000 -0.000000
1271
root 16.471223 32.874638 -13.149388 -163.774655 13.307688 -187.781996
Spine 31.763857 18.607413 -8.066193
Head -41.179954 -5.702177 3.966072
LeftShoulder 11.110229 -33.148225 2.482224
LeftArm 30.438689 69.746841 -47.406893
LeftForeArm 34.561009 -0.000000 48.277338
LeftHand -2.095938 -0.000000 -1.796469
LeftHandThumb1 -26.253704 0.000000 33.147579
RightShoulder 9.912575 3.755413 -0.413378
RightArm 39.780279 -15.442168 66.089425
RightForeArm -24.024548 -0.000000 27.029067
RightHand -7.016521 -0.000000 -12.115872
RightHandThumb1 -24.326973 -0.000000 -32.862282
LeftUpLeg -44.815511 -0.310342 -14.504000
LeftLeg 37.223364 -0.000000 -0.000000
LeftFoot -29.301734 37.966173 -11.617690
LeftToeBase 23.503778 -0.000000 -0.000000
RightUpLeg -34.518466 2.811293 -2.268816
RightLeg 96.258472 -0.000000 -0.000000
RightFoot 3.431003 -3.304014 15.299217
RightToeBase 35.117217 -0.000000 -0.000000
1272
root 16.491019 33.081865 -13.228515 -164.205165 13.829788 -187.253929
Spine 31.692349 18.515291 -7.647023
Head -40.933470 -4.968194 3.781503
LeftShoulder 11.176681 -33.121696 2.134937
LeftArm 31.209723 70.057059 -47.273082
LeftForeArm 34.546226 -0.000000 45.896408
LeftHand -1.475733 -0.000000 -2.308345
LeftHandThumb1 -26.253704 0.000000 33.147579
RightShoulder 9.805504 3.557823 -0.116154
RightArm 39.179166 -15.363119 66.374939
RightForeArm -23.955657 -0.000000 26.924357
RightHand -6.653765 -0.000000 -12.162283
RightHandThumb1 -24.326973 -0.000000 -32.862282
LeftUpLeg -43.413436 0.349679 -14.070726
LeftLeg 35.694361 -0.000000 -0.000000
LeftFoot -28.739756 38.060708 -11.536988
LeftToeBase 23.391363 -0.000000 -0.000000
RightUpLeg -35.122632 3.024099 -2.147609
RightLeg 95.930661 -0.000000 -0.000000
RightFoot 0.823728 -5.303944 14.835609
RightToeBase 31.915512 -0.000000 -0.000000
